<mxfile host="app.diagrams.net" agent="Mozilla/5.0 (Windows NT 10.0; Win64; x64) AppleWebKit/537.36 (KHTML, like Gecko) Chrome/131.0.0.0 Safari/537.36" version="25.0.3">
  <diagram name="Page-1" id="4EDEGwaHf9P7v1SkHgpE">
    <mxGraphModel grid="1" page="1" gridSize="10" guides="1" tooltips="1" connect="1" arrows="1" fold="1" pageScale="1" pageWidth="850" pageHeight="1100" math="0" shadow="0">
      <root>
        <mxCell id="0" />
        <mxCell id="1" parent="0" />
        <mxCell id="c5tZIyshUJARIzKbnh6k-25" value="S3 - Reports" style="sketch=0;outlineConnect=0;fontColor=#232F3E;gradientColor=none;fillColor=#7AA116;strokeColor=none;dashed=0;verticalLabelPosition=bottom;verticalAlign=top;align=center;html=1;fontSize=12;fontStyle=0;aspect=fixed;pointerEvents=1;shape=mxgraph.aws4.s3_object_lambda;" vertex="1" parent="1">
          <mxGeometry x="1018.08" y="-200" width="53" height="78" as="geometry" />
        </mxCell>
        <mxCell id="c5tZIyshUJARIzKbnh6k-43" style="edgeStyle=orthogonalEdgeStyle;rounded=0;orthogonalLoop=1;jettySize=auto;html=1;" edge="1" parent="1" source="c5tZIyshUJARIzKbnh6k-33" target="c5tZIyshUJARIzKbnh6k-42">
          <mxGeometry relative="1" as="geometry" />
        </mxCell>
        <mxCell id="c5tZIyshUJARIzKbnh6k-33" value="Utilities queue" style="outlineConnect=0;dashed=0;verticalLabelPosition=bottom;verticalAlign=top;align=center;html=1;shape=mxgraph.aws3.sqs;fillColor=#D9A741;gradientColor=none;" vertex="1" parent="1">
          <mxGeometry x="790.83" y="81.49000000000001" width="76.5" height="93" as="geometry" />
        </mxCell>
        <mxCell id="c5tZIyshUJARIzKbnh6k-42" value="DLQ - Failed&amp;nbsp;&lt;div&gt;Reports&lt;br&gt;&lt;/div&gt;" style="outlineConnect=0;dashed=0;verticalLabelPosition=bottom;verticalAlign=top;align=center;html=1;shape=mxgraph.aws3.sqs;fillColor=#D9A741;gradientColor=none;" vertex="1" parent="1">
          <mxGeometry x="791.58" y="264.99" width="76.5" height="93" as="geometry" />
        </mxCell>
        <mxCell id="c5tZIyshUJARIzKbnh6k-44" value="SNS - Failure&amp;nbsp;&lt;div&gt;reporter&lt;br&gt;&lt;/div&gt;" style="outlineConnect=0;dashed=0;verticalLabelPosition=bottom;verticalAlign=top;align=center;html=1;shape=mxgraph.aws3.sns;fillColor=#D9A741;gradientColor=none;" vertex="1" parent="1">
          <mxGeometry x="1011.58" y="273.24" width="76.5" height="76.5" as="geometry" />
        </mxCell>
        <mxCell id="Ejrz8QhWFEB0U392NANQ-12" value="Fargate - Utilities&lt;div&gt;Processor&lt;br&gt;&lt;/div&gt;" style="sketch=0;points=[[0,0,0],[0.25,0,0],[0.5,0,0],[0.75,0,0],[1,0,0],[0,1,0],[0.25,1,0],[0.5,1,0],[0.75,1,0],[1,1,0],[0,0.25,0],[0,0.5,0],[0,0.75,0],[1,0.25,0],[1,0.5,0],[1,0.75,0]];outlineConnect=0;fontColor=#232F3E;fillColor=#ED7100;strokeColor=#ffffff;dashed=0;verticalLabelPosition=bottom;verticalAlign=top;align=center;html=1;fontSize=12;fontStyle=0;aspect=fixed;shape=mxgraph.aws4.resourceIcon;resIcon=mxgraph.aws4.fargate;" vertex="1" parent="1">
          <mxGeometry x="1004.08" y="88.99000000000001" width="78" height="78" as="geometry" />
        </mxCell>
        <mxCell id="Ejrz8QhWFEB0U392NANQ-13" value="" style="endArrow=classic;html=1;rounded=0;entryX=1;entryY=0.5;entryDx=0;entryDy=0;entryPerimeter=0;" edge="1" parent="1" source="Ejrz8QhWFEB0U392NANQ-12" target="c5tZIyshUJARIzKbnh6k-33">
          <mxGeometry width="50" height="50" relative="1" as="geometry">
            <mxPoint x="779.08" y="-473.01" as="sourcePoint" />
            <mxPoint x="853.3299999999999" y="127.98999999999978" as="targetPoint" />
          </mxGeometry>
        </mxCell>
        <mxCell id="Ejrz8QhWFEB0U392NANQ-20" value="" style="endArrow=classic;html=1;rounded=0;exitX=1;exitY=0.5;exitDx=0;exitDy=0;exitPerimeter=0;entryX=0;entryY=0.48;entryDx=0;entryDy=0;entryPerimeter=0;" edge="1" parent="1" source="c5tZIyshUJARIzKbnh6k-42" target="c5tZIyshUJARIzKbnh6k-44">
          <mxGeometry width="50" height="50" relative="1" as="geometry">
            <mxPoint x="823.08" y="-686.01" as="sourcePoint" />
            <mxPoint x="873.08" y="-736.01" as="targetPoint" />
          </mxGeometry>
        </mxCell>
        <mxCell id="Ejrz8QhWFEB0U392NANQ-23" value="" style="endArrow=classic;html=1;rounded=0;exitX=0.5;exitY=0;exitDx=0;exitDy=0;exitPerimeter=0;" edge="1" parent="1" source="Ejrz8QhWFEB0U392NANQ-12" target="c5tZIyshUJARIzKbnh6k-25">
          <mxGeometry width="50" height="50" relative="1" as="geometry">
            <mxPoint x="858.08" y="411.49" as="sourcePoint" />
            <mxPoint x="878.08" y="-68.50999999999999" as="targetPoint" />
          </mxGeometry>
        </mxCell>
        <mxCell id="IAW61SfKDDdMpeAvlEn6-18" value="Utilities DB" style="outlineConnect=0;dashed=0;verticalLabelPosition=bottom;verticalAlign=top;align=center;html=1;shape=mxgraph.aws3.dynamo_db;fillColor=#2E73B8;gradientColor=none;" vertex="1" parent="1">
          <mxGeometry x="1444.4299999999998" y="85.99000000000001" width="72" height="81" as="geometry" />
        </mxCell>
        <mxCell id="IAW61SfKDDdMpeAvlEn6-19" value="" style="endArrow=classic;html=1;rounded=0;entryX=0;entryY=0.5;entryDx=0;entryDy=0;entryPerimeter=0;exitX=1;exitY=0.5;exitDx=0;exitDy=0;exitPerimeter=0;" edge="1" parent="1" source="Ejrz8QhWFEB0U392NANQ-12" target="IAW61SfKDDdMpeAvlEn6-18">
          <mxGeometry width="50" height="50" relative="1" as="geometry">
            <mxPoint x="1042.08" y="-403.01" as="sourcePoint" />
            <mxPoint x="1092.08" y="-453.01" as="targetPoint" />
          </mxGeometry>
        </mxCell>
        <mxCell id="IAW61SfKDDdMpeAvlEn6-25" value="Report&lt;div&gt;Enqueuer&lt;/div&gt;" style="outlineConnect=0;dashed=0;verticalLabelPosition=bottom;verticalAlign=top;align=center;html=1;shape=mxgraph.aws3.lambda_function;fillColor=#F58534;gradientColor=none;" vertex="1" parent="1">
          <mxGeometry x="582.83" y="88.99000000000001" width="69" height="72" as="geometry" />
        </mxCell>
        <mxCell id="IAW61SfKDDdMpeAvlEn6-27" value="" style="endArrow=classic;html=1;rounded=0;exitX=1;exitY=0.5;exitDx=0;exitDy=0;exitPerimeter=0;" edge="1" parent="1" source="IAW61SfKDDdMpeAvlEn6-25" target="c5tZIyshUJARIzKbnh6k-33">
          <mxGeometry width="50" height="50" relative="1" as="geometry">
            <mxPoint x="269.08" y="181.49" as="sourcePoint" />
            <mxPoint x="319.08" y="131.49" as="targetPoint" />
          </mxGeometry>
        </mxCell>
        <mxCell id="IAW61SfKDDdMpeAvlEn6-41" value="Utilities processor consumes:&amp;nbsp;&lt;div&gt;&lt;span style=&quot;font-size: 11px; text-wrap-mode: nowrap; background-color: rgb(255, 255, 255);&quot;&gt;GET /api/production/{zoneId}/{date}&lt;/span&gt;&lt;/div&gt;&lt;div&gt;&lt;span style=&quot;font-size: 11px; text-wrap-mode: nowrap; background-color: rgb(255, 255, 255);&quot;&gt;GET /api/consumption/{zoneId}/{date}&lt;/span&gt;&lt;span style=&quot;font-size: 11px; text-wrap-mode: nowrap; background-color: rgb(255, 255, 255);&quot;&gt;&lt;/span&gt;&lt;/div&gt;" style="shape=note2;boundedLbl=1;whiteSpace=wrap;html=1;size=25;verticalAlign=top;align=center;" vertex="1" parent="1">
          <mxGeometry x="1103" y="19.999999999999996" width="324.92" height="80.49" as="geometry" />
        </mxCell>
        <mxCell id="D_zP5o6NSthtwzWJcST3-7" style="edgeStyle=orthogonalEdgeStyle;rounded=0;orthogonalLoop=1;jettySize=auto;html=1;" edge="1" parent="1" source="aOs1pLIyG8DCKxvJMUr1-1" target="IAW61SfKDDdMpeAvlEn6-25">
          <mxGeometry relative="1" as="geometry" />
        </mxCell>
        <mxCell id="aOs1pLIyG8DCKxvJMUr1-1" value="Programmatic request&amp;nbsp;&lt;div&gt;generation&lt;/div&gt;" style="sketch=0;points=[[0,0,0],[0.25,0,0],[0.5,0,0],[0.75,0,0],[1,0,0],[0,1,0],[0.25,1,0],[0.5,1,0],[0.75,1,0],[1,1,0],[0,0.25,0],[0,0.5,0],[0,0.75,0],[1,0.25,0],[1,0.5,0],[1,0.75,0]];outlineConnect=0;fontColor=#232F3E;fillColor=#E7157B;strokeColor=#ffffff;dashed=0;verticalLabelPosition=bottom;verticalAlign=top;align=center;html=1;fontSize=12;fontStyle=0;aspect=fixed;shape=mxgraph.aws4.resourceIcon;resIcon=mxgraph.aws4.eventbridge;" vertex="1" parent="1">
          <mxGeometry x="578.33" y="273.24" width="78" height="78" as="geometry" />
        </mxCell>
        <mxCell id="LHu-XZBS9X4F1OgdoAab-1" style="edgeStyle=orthogonalEdgeStyle;rounded=0;orthogonalLoop=1;jettySize=auto;html=1;" edge="1" parent="1" source="LHu-XZBS9X4F1OgdoAab-2" target="LHu-XZBS9X4F1OgdoAab-22">
          <mxGeometry relative="1" as="geometry" />
        </mxCell>
        <mxCell id="LHu-XZBS9X4F1OgdoAab-2" value="S3 - Reports" style="sketch=0;outlineConnect=0;fontColor=#232F3E;gradientColor=none;fillColor=#7AA116;strokeColor=none;dashed=0;verticalLabelPosition=bottom;verticalAlign=top;align=center;html=1;fontSize=12;fontStyle=0;aspect=fixed;pointerEvents=1;shape=mxgraph.aws4.s3_object_lambda;" vertex="1" parent="1">
          <mxGeometry x="836.4099999999999" y="570" width="53" height="78" as="geometry" />
        </mxCell>
        <mxCell id="LHu-XZBS9X4F1OgdoAab-3" value="Report&lt;div&gt;downloader&lt;/div&gt;" style="outlineConnect=0;dashed=0;verticalLabelPosition=bottom;verticalAlign=top;align=center;html=1;shape=mxgraph.aws3.lambda_function;fillColor=#F58534;gradientColor=none;" vertex="1" parent="1">
          <mxGeometry x="582.8299999999999" y="573.75" width="69" height="72" as="geometry" />
        </mxCell>
        <mxCell id="LHu-XZBS9X4F1OgdoAab-6" value="SNS - Report&lt;br&gt;&lt;div&gt;Notifier&lt;/div&gt;" style="outlineConnect=0;dashed=0;verticalLabelPosition=bottom;verticalAlign=top;align=center;html=1;shape=mxgraph.aws3.sns;fillColor=#D9A741;gradientColor=none;" vertex="1" parent="1">
          <mxGeometry x="1258.2599999999998" y="571.5" width="76.5" height="76.5" as="geometry" />
        </mxCell>
        <mxCell id="LHu-XZBS9X4F1OgdoAab-12" value="" style="endArrow=classic;html=1;rounded=0;exitX=1;exitY=0.5;exitDx=0;exitDy=0;exitPerimeter=0;" edge="1" parent="1" source="LHu-XZBS9X4F1OgdoAab-3" target="LHu-XZBS9X4F1OgdoAab-2">
          <mxGeometry width="50" height="50" relative="1" as="geometry">
            <mxPoint x="438.90999999999997" y="971" as="sourcePoint" />
            <mxPoint x="488.90999999999997" y="921" as="targetPoint" />
          </mxGeometry>
        </mxCell>
        <mxCell id="LHu-XZBS9X4F1OgdoAab-21" style="edgeStyle=orthogonalEdgeStyle;rounded=0;orthogonalLoop=1;jettySize=auto;html=1;" edge="1" parent="1" source="LHu-XZBS9X4F1OgdoAab-22" target="LHu-XZBS9X4F1OgdoAab-6">
          <mxGeometry relative="1" as="geometry" />
        </mxCell>
        <mxCell id="LHu-XZBS9X4F1OgdoAab-22" value="Report Notifier" style="outlineConnect=0;dashed=0;verticalLabelPosition=bottom;verticalAlign=top;align=center;html=1;shape=mxgraph.aws3.lambda_function;fillColor=#F58534;gradientColor=none;" vertex="1" parent="1">
          <mxGeometry x="1059.33" y="573" width="69" height="72" as="geometry" />
        </mxCell>
      </root>
    </mxGraphModel>
  </diagram>
</mxfile>
